<?xml version="1.0" encoding="UTF-8" standalone="no"?>
<!DOCTYPE svg PUBLIC "-//W3C//DTD SVG 1.1//EN" "http://www.w3.org/Graphics/SVG/1.1/DTD/svg11.dtd">
<svg width="100%" height="100%" viewBox="0 0 256 256" version="1.1" xmlns="http://www.w3.org/2000/svg" xmlns:xlink="http://www.w3.org/1999/xlink" xml:space="preserve" xmlns:serif="http://www.serif.com/" style="fill-rule:evenodd;clip-rule:evenodd;stroke-linejoin:round;stroke-miterlimit:2;">
    <g transform="matrix(1,0,0,1,-2563,-306.563)">
        <g id="playyyer" transform="matrix(1.2549,0,0,1.1179,-680.922,-39.9873)">
            <rect x="2585" y="310" width="204" height="229" style="fill:none;"/>
            <g transform="matrix(1.25223,0,0,1.40569,-689.644,-186.362)">
                <g id="LOGO-PLAYYYER" serif:id="LOGO PLAYYYER">
                    <path d="M2752.1,404.932C2756.82,413.761 2759.5,423.852 2759.5,434.563C2759.5,469.334 2731.27,497.563 2696.5,497.563C2661.73,497.563 2633.5,469.334 2633.5,434.563C2633.5,423.931 2636.14,413.91 2640.81,405.114L2667.58,445.154L2667.58,481.489L2678.93,481.489L2678.93,445.154L2684.53,437.063L2689.94,445.154L2689.94,481.489L2701.29,481.489L2701.29,445.154L2707.2,436.626L2712.9,445.154L2712.9,481.489L2724.25,481.489L2724.25,445.154L2752.1,404.932ZM2646.94,395.714C2658.47,381.006 2676.39,371.563 2696.5,371.563C2716.61,371.563 2734.53,381.006 2746.06,395.714L2745.26,395.714L2728.64,420.931C2724.97,426.548 2721.85,431.599 2719.28,436.085C2717.58,433.028 2715.79,429.972 2713.91,426.925L2735.52,395.714L2722.3,395.714L2707.92,417.536L2703.12,410.206L2713.16,395.714L2699.94,395.714L2696.78,400.502L2693.65,395.714L2679.84,395.714L2689.96,410.85L2685.26,417.99L2670.69,395.714L2656.88,395.714L2678.65,428.264C2676.92,431.037 2675.36,433.645 2673.96,436.085C2671.27,431.248 2668.36,426.412 2665.24,421.575L2648.33,395.714L2646.94,395.714ZM2691.24,427.381L2696.21,420.195L2701.3,427.804C2699.46,430.747 2697.8,433.509 2696.32,436.085C2694.7,433.182 2693.01,430.279 2691.24,427.381ZM2646.94,395.714C2644.63,398.649 2642.57,401.797 2640.81,405.114L2634.52,395.714L2646.94,395.714ZM2752.1,404.932C2750.36,401.676 2748.34,398.591 2746.06,395.714L2758.48,395.714L2752.1,404.932Z" style="fill:white;"/>
                </g>
            </g>
        </g>
    </g>
</svg>
