<?xml version="1.0" encoding="UTF-8" standalone="no"?>
<!DOCTYPE svg PUBLIC "-//W3C//DTD SVG 1.1//EN" "http://www.w3.org/Graphics/SVG/1.1/DTD/svg11.dtd">
<svg width="100%" height="100%" viewBox="0 0 91 91" version="1.1" xmlns="http://www.w3.org/2000/svg" xmlns:xlink="http://www.w3.org/1999/xlink" xml:space="preserve" xmlns:serif="http://www.serif.com/" style="fill-rule:evenodd;clip-rule:evenodd;stroke-linejoin:round;stroke-miterlimit:2;">
    <g transform="matrix(1,0,0,1,-5263,-3802)">
        <g id="icon-qrcode" transform="matrix(0.441176,0,0,0.393013,4123.06,3680.29)">
            <rect x="2585" y="310" width="204" height="229" style="fill:none;"/>
            <clipPath id="_clip1">
                <rect x="2585" y="310" width="204" height="229"/>
            </clipPath>
            <g clip-path="url(#_clip1)">
                <g transform="matrix(1.01493,0,0,1.1393,-2790.04,-750.792)">
                    <path d="M5385,1043.09L5385,1132.09L5319.89,1132.09C5306.7,1132.09 5296,1121.38 5296,1108.2L5296,1043.09L5385,1043.09ZM5424,1098.18L5424,1132.09L5408,1132.09L5408,1098.18L5424,1098.18ZM5497,1098.18L5497,1108.2C5497,1121.38 5486.3,1132.09 5473.11,1132.09L5441,1132.09L5441,1116.09L5465.7,1116.09C5480.14,1116.09 5481,1116.23 5481,1100.79L5481,1098.18L5497,1098.18ZM5369,1059.09L5312,1059.09L5312,1100.79C5312,1116.23 5312.86,1116.09 5327.3,1116.09L5369,1116.09L5369,1059.09ZM5352,1098.18L5330,1098.18L5330,1076.18L5352,1076.18L5352,1098.18ZM5441,1098.18L5463,1098.18L5463,1076.18L5441,1076.18L5441,1098.18ZM5481,1076.18L5481,1043.09L5497,1043.09L5497,1076.18L5481,1076.18ZM5463,1043.09L5463,1059.09L5424,1059.09L5424,1076.18L5408,1076.18L5408,1043.09L5463,1043.09ZM5408,931.088L5473.11,931.088C5486.3,931.088 5497,941.793 5497,954.979L5497,1020.09L5408,1020.09L5408,931.088ZM5385,1020.09L5296,1020.09L5296,954.979C5296,941.793 5306.7,931.088 5319.89,931.088L5385,931.088L5385,1020.09ZM5369,1004.09L5312,1004.09L5312,962.389C5312,946.944 5312.86,947.088 5327.3,947.088L5369,947.088L5369,1004.09ZM5424,947.088L5481,947.088L5481,988.788C5481,1004.23 5480.14,1004.09 5465.7,1004.09L5424,1004.09L5424,947.088ZM5352,965L5330,965L5330,987L5352,987L5352,965ZM5441,986.177L5463,986.177L5463,964.177L5441,964.177L5441,986.177Z" style="fill:rgb(5,0,58);"/>
                </g>
            </g>
        </g>
    </g>
</svg>
